<?xml version="1.0" encoding="UTF-8" standalone="no"?>
<svg
   xmlns:dc="http://purl.org/dc/elements/1.1/"
   xmlns:cc="http://creativecommons.org/ns#"
   xmlns:rdf="http://www.w3.org/1999/02/22-rdf-syntax-ns#"
   xmlns:svg="http://www.w3.org/2000/svg"
   xmlns="http://www.w3.org/2000/svg"
   xmlns:sodipodi="http://sodipodi.sourceforge.net/DTD/sodipodi-0.dtd"
   xmlns:inkscape="http://www.inkscape.org/namespaces/inkscape"
   inkscape:version="1.0 (4035a4f, 2020-05-01)"
   sodipodi:docname="ADLS2.svg"
   id="svg34"
   version="1.1"
   fill="none"
   viewBox="0 0 100 100"
   height="16"
   width="16">
  <metadata
     id="metadata40">
    <rdf:RDF>
      <cc:Work
         rdf:about="">
        <dc:format>image/svg+xml</dc:format>
        <dc:type
           rdf:resource="http://purl.org/dc/dcmitype/StillImage" />
        <dc:title></dc:title>
      </cc:Work>
    </rdf:RDF>
  </metadata>
  <defs
     id="defs38">
    <linearGradient
       id="SVGID_1_"
       gradientUnits="userSpaceOnUse"
       x1="20566.285"
       y1="9156.5811"
       x2="20566.285"
       y2="9157.4717"
       gradientTransform="matrix(80,0,0,70,-1645251.7,-640862.69)">
      <stop
         offset="0"
         style="stop-color:#4387FD"
         id="stop46" />
      <stop
         offset="1"
         style="stop-color:#4683EA"
         id="stop48" />
    </linearGradient>
  </defs>
  <sodipodi:namedview
     inkscape:current-layer="svg34"
     inkscape:window-maximized="0"
     inkscape:window-y="23"
     inkscape:window-x="53"
     inkscape:cy="61.224664"
     inkscape:cx="56.767703"
     inkscape:zoom="2.8448827"
     showgrid="false"
     id="namedview36"
     inkscape:window-height="855"
     inkscape:window-width="1261"
     inkscape:pageshadow="2"
     inkscape:pageopacity="0"
     guidetolerance="10"
     gridtolerance="10"
     objecttolerance="10"
     borderopacity="1"
     bordercolor="#666666"
     pagecolor="#ffffff" />
  <mask
     height="73"
     width="200"
     y="0"
     x="0"
     maskUnits="userSpaceOnUse"
     mask-type="alpha"
     id="mask0">
    <ellipse
       id="ellipse18"
       fill="#ffffff"
       ry="36.134201"
       rx="99.999298"
       cy="36.134201"
       cx="99.999298" />
  </mask>
  <mask
     height="48"
     width="159"
     y="10"
     x="21"
     maskUnits="userSpaceOnUse"
     mask-type="alpha"
     id="mask1">
    <ellipse
       id="ellipse25"
       fill="#ffffff"
       ry="23.9494"
       rx="79.411201"
       cy="34.033401"
       cx="100.419" />
  </mask>
  <rect
     style="stroke-width:0.258921"
     x="25.111622"
     id="rect10"
     fill="#3e3e3e"
     height="45.044365"
     width="24.469931"
     y="23.171635" />
  <rect
     style="stroke-width:0.258921"
     id="rect12"
     fill="#a0a1a2"
     height="45.044365"
     width="25.306503"
     y="23.171635"
     x="49.581875" />
  <path
     style="stroke-width:0.258921"
     id="path14"
     fill="#3999c6"
     d="m 25.111621,56.558731 v 20.14533 C 28.14422,84.51341 43.690647,85.795844 49.581553,85.645 V 60.067174 c -3.346318,0.362022 -7.250359,-3.395311 -8.78408,-5.319365 -1.673147,2.150319 -4.705746,5.092831 -8.365781,5.319365 -2.928043,0.181011 -6.10006,-2.263451 -7.320071,-3.508443 z" />
  <path
     style="stroke-width:0.258921"
     id="path16"
     fill="#59b4d9"
     d="m 74.887883,56.445329 v 20.258732 c -3.0324,7.80908 -19.415425,9.091783 -25.306405,8.940939 V 60.180306 c 3.346392,0.362022 7.250383,-3.39531 8.784005,-5.319365 1.673246,2.150318 4.705895,4.866567 8.36598,5.092831 2.927869,0.181281 6.936391,-2.26345 8.15642,-3.508443 z" />
  <g
     transform="matrix(0.2488838,0,0,0.26936221,25.111621,14.343747)"
     id="g23"
     mask="url(#mask0)">
    <ellipse
       id="ellipse21"
       fill="#ffffff"
       ry="36.974602"
       rx="99.999298"
       cy="35.2939"
       cx="99.999298" />
  </g>
  <g
     transform="matrix(0.2488838,0,0,0.26936221,25.111621,14.343747)"
     id="g32"
     mask="url(#mask1)">
    <ellipse
       id="ellipse28"
       fill="#b8d432"
       ry="23.9494"
       rx="79.411201"
       cy="34.033401"
       cx="100.419" />
    <ellipse
       id="ellipse30"
       fill="#7fba00"
       ry="23.9494"
       rx="79.411201"
       cy="63.444901"
       cx="100.419" />
  </g>
</svg>
