<?xml version="1.0" encoding="utf-8"?>
<!-- Generator: Adobe Illustrator 24.0.3, SVG Export Plug-In . SVG Version: 6.00 Build 0)  -->
<svg version="1.1" id="image" xmlns="http://www.w3.org/2000/svg" xmlns:xlink="http://www.w3.org/1999/xlink" x="0px" y="0px"
	 viewBox="0 0 100 100" width="16" height="16" style="enable-background:new 0 0 100 100;" xml:space="preserve">
<style type="text/css">
	.st0{fill:#0178D6;}
	.st1{fill:#F9FBFD;}
	.st2{fill:#0579D7;}
	.st3{fill:#ECF3FB;}
	.st4{fill:#F0F5FB;}
	.st5{fill:#F5F8FC;}
	.st6{fill:#F1F6FC;}
	.st7{fill:#0478D6;}
	.st8{fill:#0779D7;}
</style>
<g>
	<path class="st0" d="M49.3,81.4c-5.5,0-11.1,0-16.6,0c-1,0-1.5-0.3-2-1.1c-5.5-9.7-11-19.3-16.5-29c-0.5-0.8-0.5-1.4,0-2.2
		c5.6-9.7,11.2-19.5,16.7-29.2c0.4-0.7,0.8-1,1.6-1c11.3,0,22.5,0,33.8,0c0.8,0,1.1,0.3,1.5,0.9c5.6,9.9,11.3,19.8,17,29.7
		c0.3,0.5,0.3,0.9,0,1.5C79,60.8,73.3,70.7,67.7,80.6c-0.4,0.8-1,0.8-1.7,0.8C60.4,81.4,54.9,81.4,49.3,81.4z M30.8,51.4
		c0,4.5,0,9,0,13.6c0,3,2,5.1,5,5.1c8.8,0,17.6,0,26.3,0c3,0,5.1-2.1,5.1-5.1c0-8,0-15.9,0-23.9c0-0.7-0.2-1.2-0.7-1.7
		c-2-2-4-3.9-5.9-5.9c-0.6-0.7-1.3-0.9-2.2-0.9c-7.3,0-14.6,0-22,0c-3.6,0-5.6,2-5.6,5.6C30.8,42.5,30.8,47,30.8,51.4z"/>
	<path class="st1" d="M30.8,51.4c0-4.4,0-8.8,0-13.2c0-3.5,2.1-5.6,5.6-5.6c7.3,0,14.6,0,22,0c0.9,0,1.6,0.3,2.2,0.9
		c1.9,2,3.9,4,5.9,5.9c0.5,0.5,0.7,1,0.7,1.7c0,8,0,15.9,0,23.9c0,3-2.1,5.1-5.1,5.1c-8.8,0-17.6,0-26.3,0c-3,0-5-2.1-5-5.1
		C30.8,60.4,30.8,55.9,30.8,51.4z M62.8,67.7l0.2,0l0.2,0c1.4-0.2,1.8-1.2,1.8-2.4c0-1.3,0-2.7,0-4c0-6,0-12.1,0-18.1
		c0-1.1-0.3-1.6-1.5-1.4c-0.8,0.1-1.6-0.1-2.4,0c-1.4,0.2-2.1-0.2-1.9-1.8c0.1-1.2,0-2.5,0-3.7c0.1-1-0.2-1.4-1.3-1.4
		c-7.3,0-14.6,0-22,0c-2.1,0-2.8,0.7-2.8,2.8c0,3.3,0,6.6,0,9.9c0,5.8,0,11.6,0,17.4c0,1.8,0.7,2.8,2.2,2.8
		C44.5,67.8,53.6,67.7,62.8,67.7z"/>
	<path class="st2" d="M62.8,67.7c-9.1,0-18.3,0.1-27.4,0.1c-1.5,0-2.2-0.9-2.2-2.8c0-5.8,0-11.6,0-17.4c0-3.3,0-6.6,0-9.9
		c0-2.1,0.7-2.8,2.8-2.8c7.3,0,14.6,0,22,0c1.1,0,1.4,0.3,1.3,1.4c-0.1,1.2,0.1,2.5,0,3.7c-0.2,1.6,0.5,1.9,1.9,1.8
		c0.8-0.1,1.6,0,2.4,0c1.1-0.1,1.5,0.3,1.5,1.4c-0.1,6,0,12.1,0,18.1c0,1.3,0,2.7,0,4c0,1.2-0.5,2.2-1.8,2.4
		C63,67.5,62.9,67.5,62.8,67.7z M47.5,59.1c0-1.1-0.1-2.1-0.6-3.1c-0.5-1.2-1.3-2.1-2.7-2.1c-1.5-0.1-2.5,0.7-3.1,2
		c-1.1,2.3-1,4.7,0,7c0.5,1.1,1.4,1.7,2.7,1.8c1.3,0,2.3-0.6,2.9-1.7C47.4,61.7,47.6,60.4,47.5,59.1z M49.8,43.7
		c-0.1,1.2,0.1,2.4,0.6,3.4c0.6,1.1,1.4,1.8,2.8,1.8c1.3,0,2.3-0.6,2.8-1.7c1.1-2.4,1.2-4.9,0-7.3c-1.1-2.1-3.7-2.3-5.2-0.4
		C50,40.8,49.7,42.3,49.8,43.7z M44.2,39.8c0,2.1-0.1,4,0,5.9c0.1,1.5-0.2,2.4-1.9,2c-0.5-0.1-1,0-0.9,0.7c0,0.7,0.5,0.6,0.9,0.6
		c1.6,0,3.2,0,4.8,0c0.5,0,1.1,0.2,1.1-0.7c0-0.8-0.6-0.7-1-0.6c-1.3,0.2-1.4-0.5-1.3-1.5c0.1-2.4,0-4.7,0-7.1c0-1.1-0.5-1.3-1.3-1
		c-1.1,0.4-2.1,1-3.2,1.6c-0.5,0.3-0.2,0.6-0.1,0.9c0.2,0.4,0.4,0.4,0.8,0.3C42.7,40.6,43.3,40.3,44.2,39.8z M52.8,54.7
		c0,2.1-0.1,4,0,5.9c0.1,1.5-0.2,2.3-1.9,2c-0.4-0.1-0.9-0.1-0.9,0.6c0,0.7,0.4,0.8,0.9,0.8c1.6,0,3.1,0,4.7,0
		c0.5,0,1.3,0.3,1.2-0.7c0-0.9-0.7-0.7-1.2-0.6c-1.1,0.1-1.4-0.3-1.3-1.4c0.1-1.6,0.1-3.2,0-4.8c-0.1-1.1,0.6-2.7-0.4-3.3
		c-1.2-0.7-2.3,0.8-3.5,1.3c-0.1,0.1-0.3,0.1-0.4,0.2c-0.4,0.3-0.3,0.6-0.1,1c0.2,0.5,0.5,0.4,0.9,0.2C51.4,55.5,52,55.2,52.8,54.7z
		"/>
	<path class="st3" d="M47.5,59.1c0,1.3-0.2,2.6-0.8,3.7c-0.6,1.1-1.6,1.7-2.9,1.7c-1.3,0-2.2-0.7-2.7-1.8c-1-2.3-1.1-4.7,0-7
		c0.6-1.2,1.6-2,3.1-2c1.4,0.1,2.2,0.9,2.7,2.1C47.4,57,47.6,58.1,47.5,59.1z M46,59.1c0-0.9,0-2-0.5-3c-0.3-0.6-0.7-1-1.5-1.1
		c-0.7,0-1.3,0.3-1.5,1c-0.9,2.2-1,4.4,0.1,6.5c0.6,1.3,2,1.3,2.8,0C46,61.5,46,60.4,46,59.1z"/>
	<path class="st4" d="M49.8,43.7c-0.1-1.5,0.2-2.9,1.1-4.1c1.4-1.9,4.1-1.8,5.2,0.4c1.2,2.4,1.1,4.9,0,7.3c-0.5,1.1-1.5,1.7-2.8,1.7
		c-1.4,0-2.2-0.7-2.8-1.8C49.9,46.1,49.7,44.9,49.8,43.7z M55.3,43.6c0-1,0-2-0.4-3c-0.3-0.6-0.7-1.1-1.4-1.1
		c-0.7,0-1.3,0.3-1.6,0.9c-1,2.2-1,4.4,0,6.5c0.6,1.4,2.1,1.3,2.9-0.1C55.3,45.8,55.4,44.7,55.3,43.6z"/>
	<path class="st5" d="M44.2,39.8c-0.9,0.5-1.5,0.8-2.1,1.1c-0.3,0.2-0.6,0.2-0.8-0.3c-0.1-0.4-0.4-0.7,0.1-0.9
		c1-0.5,2.1-1.2,3.2-1.6c0.7-0.3,1.3-0.1,1.3,1c-0.1,2.4,0,4.7,0,7.1c0,1,0.1,1.7,1.3,1.5c0.4-0.1,1-0.2,1,0.6
		c0,0.9-0.6,0.7-1.1,0.7c-1.6,0-3.2,0-4.8,0c-0.4,0-0.9,0.1-0.9-0.6c0-0.7,0.4-0.8,0.9-0.7c1.8,0.3,2-0.5,1.9-2
		C44.2,43.8,44.2,41.9,44.2,39.8z"/>
	<path class="st6" d="M52.8,54.7c-0.8,0.4-1.4,0.7-1.9,1c-0.4,0.2-0.7,0.3-0.9-0.2c-0.2-0.4-0.3-0.7,0.1-1c0.1-0.1,0.3-0.2,0.4-0.2
		c1.2-0.4,2.3-1.9,3.5-1.3c1,0.6,0.3,2.2,0.4,3.3c0.1,1.6,0.1,3.2,0,4.8c-0.1,1,0.2,1.5,1.3,1.4c0.5-0.1,1.1-0.3,1.2,0.6
		c0,1-0.7,0.7-1.2,0.7c-1.6,0-3.1,0-4.7,0c-0.6,0-0.9-0.1-0.9-0.8c0-0.7,0.5-0.7,0.9-0.6c1.7,0.3,1.9-0.5,1.9-2
		C52.7,58.8,52.8,56.9,52.8,54.7z"/>
	<path class="st7" d="M46,59.1c0,1.3,0,2.4-0.6,3.4c-0.8,1.3-2.1,1.3-2.8,0c-1-2.1-0.9-4.3-0.1-6.5c0.3-0.6,0.8-1,1.5-1
		c0.7,0,1.2,0.4,1.5,1.1C46,57.1,46,58.2,46,59.1z"/>
	<path class="st8" d="M55.3,43.6c0,1.1,0,2.3-0.6,3.3c-0.8,1.4-2.2,1.5-2.9,0.1c-1-2.1-1-4.4,0-6.5c0.3-0.6,0.8-0.9,1.6-0.9
		c0.7,0,1.2,0.5,1.4,1.1C55.3,41.5,55.4,42.6,55.3,43.6z"/>
</g>
</svg>
