<?xml version="1.0" encoding="utf-8"?>
<!-- Generator: Adobe Illustrator 23.0.4, SVG Export Plug-In . SVG Version: 6.00 Build 0)  -->
<svg version="1.1" id="image" xmlns="http://www.w3.org/2000/svg" xmlns:xlink="http://www.w3.org/1999/xlink" x="0px" y="0px"
	 viewBox="0 0 100 100" width="32" height="32" style="enable-background:new 0 0 100 100;" xml:space="preserve">
<style type="text/css">
	.st0{fill:#262626;}
	.st1{fill:#FFFFFF;}
	.st2{fill:#019934;}
</style>
<title>DB2 SQL</title>
<path class="st0" d="M76.2,78.2H23.8c-1.1,0-2-0.9-2-2V23.8c0-1.1,0.9-2,2-2h52.5c1.1,0,1.9,0.9,2,2v52.5
	C78.2,77.3,77.3,78.2,76.2,78.2z"/>
<polygon points="78.2,63.1 21.8,63.1 21.8,52.3 21.8,35.5 78.2,35.5 78.2,52.7 "/>
<path class="st1" d="M29.1,26.7v1.1h8.1v-1.1H29.1z M38.4,26.7v1.1H50c-0.8-0.7-1.7-1.1-2.8-1.1H38.4z M52.3,26.7v1.1h7l-0.4-1.1
	H52.3z M64.3,26.7l-0.4,1.1h7v-1.1H64.3z M29.1,28.9V30h8.1v-1.1H29.1z M38.4,28.9V30h12.9c-0.1-0.4-0.2-0.8-0.4-1.1H38.4z
	 M52.3,28.9V30H60l-0.4-1.1H52.3z M63.5,28.9L63.1,30h7.7v-1.1H63.5z M31.4,31.1v1.1H35v-1.1H31.4z M40.7,31.1v1.1h3.5v-1.1H40.7z
	 M47.7,31.1v1.1h3.5c0.1-0.4,0.2-0.7,0.2-1.1H47.7z M54.6,31.1v1.1h6.2l-0.4-1.1H54.6z M62.7,31.1l-0.4,1.1h6.3v-1.1H62.7z
	 M31.4,33.3v1.1H35v-1.1H31.4z M40.7,33.3v1.1h9c0.4-0.3,0.7-0.7,1-1.1H40.7z M54.6,33.3v1.1h3.5v-0.6l0.2,0.6h6.4l0.2-0.6v0.6h3.5
	v-1.1h-6.6l-0.4,1l-0.4-1L54.6,33.3z M31.4,35.6v1.1H35v-1.1H31.4z M40.7,35.6v1.1h10c-0.3-0.4-0.6-0.8-1-1.1H40.7z M54.6,35.6v1.1
	h3.5v-1.1H54.6z M58.8,35.6l0.4,1.1H64l0.4-1.1H58.8z M65,35.6v1.1h3.5v-1.1H65z M31.4,37.8v1.1H35v-1.1H31.4z M40.7,37.8v1.1h3.5
	v-1.1H40.7z M47.7,37.8v1.1h3.7c0-0.4-0.1-0.8-0.2-1.1H47.7z M54.6,37.8v1.1h3.5v-1.1H54.6z M59.6,37.8l0.4,1.1h3.3l0.4-1.1H59.6z
	 M65,37.8v1.1h3.5v-1.1H65z M29.2,40v1.1h8.1V40H29.2z M38.4,40v1.1h12.5c0.2-0.3,0.4-0.7,0.4-1.1H38.4z M52.4,40v1.1h5.8V40H52.4z
	 M60.4,40l0.4,1.1h1.6l0.4-1.1H60.4z M65.1,40v1.1h5.8V40H65.1z M29.2,42.2v1.1h8.1v-1.1H29.2z M38.4,42.2v1.1h8.8
	c1,0,2-0.4,2.7-1.1H38.4z M52.4,42.2v1.1h5.8v-1.1H52.4z M61.2,42.2l0.4,1.1h0.1l0.4-1.1H61.2z M65.1,42.2v1.1h5.8v-1.1H65.1z"/>
<path class="st2" d="M76.1,78.2H23.9c-1.1,0-2-0.9-2.1-2V48.6l56.4-0.1v27.7C78.2,77.3,77.3,78.2,76.1,78.2z"/>
<path class="st1" d="M36.4,54.1c1.1,0,2.1,0.2,3.1,0.6c0.8,0.4,1.4,1,1.8,1.8c0.5,0.9,0.8,1.8,0.9,2.8c0.2,1.2,0.2,2.5,0.2,3.7
	c0,1.4-0.1,2.8-0.3,4.2c-0.2,1-0.5,2-1,2.9c-0.5,0.8-1.1,1.4-1.9,1.7c-1,0.4-2,0.6-3.1,0.6h-5.8V54.1H36.4z M35.7,69.8
	c0.5,0,1.1-0.1,1.6-0.3c0.4-0.3,0.8-0.7,0.9-1.1c0.3-0.6,0.4-1.3,0.5-2c0.1-0.8,0.1-1.9,0.1-3.1c0-1,0-2-0.1-2.7
	c0-0.7-0.2-1.3-0.4-2c-0.2-0.5-0.5-0.9-1-1.2c-0.5-0.3-1.1-0.4-1.7-0.4h-1.6v12.9L35.7,69.8z"/>
<path class="st1" d="M51.2,54.1c0.7,0,1.4,0.1,2.1,0.2c0.6,0.1,1.2,0.4,1.6,0.8c0.5,0.4,0.9,0.9,1.1,1.4c0.3,0.7,0.4,1.5,0.4,2.2
	c0,0.9-0.2,1.8-0.7,2.6c-0.5,0.7-1.2,1.2-2.1,1.4v0.1c1,0.1,1.8,0.6,2.4,1.3c0.6,0.8,1,1.9,0.9,3c0,0.7-0.1,1.4-0.3,2
	c-0.2,0.6-0.5,1.2-1,1.7c-0.5,0.5-1.1,0.9-1.8,1.2c-0.9,0.3-1.8,0.5-2.7,0.4H45V54.1H51.2z M49.7,61.7c0.8,0.1,1.6-0.1,2.3-0.6
	c0.5-0.5,0.8-1.2,0.7-1.9c0.1-0.7-0.2-1.4-0.6-1.9c-0.6-0.4-1.3-0.6-2-0.6h-1.3v4.8H49.7z M50.1,69.8c0.8,0,1.5-0.2,2.2-0.6
	c0.6-0.4,0.8-1.1,0.8-2.2c0-0.5-0.1-0.9-0.2-1.3c-0.1-0.3-0.3-0.6-0.6-0.8c-0.3-0.2-0.6-0.4-0.9-0.5c-0.4-0.1-0.7-0.1-1.1-0.1h-1.6
	v5.5L50.1,69.8L50.1,69.8z"/>
<path class="st1" d="M58.4,72.5c0-0.8,0.1-1.5,0.2-2.3c0.2-0.7,0.4-1.4,0.7-2c0.4-0.7,0.8-1.3,1.3-1.9c0.5-0.6,1.1-1.3,1.8-1.8
	l1.5-1.4c0.4-0.3,0.7-0.6,1-1c0.2-0.3,0.4-0.6,0.6-0.9c0.1-0.3,0.2-0.7,0.3-1c0-0.4,0.1-0.8,0.1-1.2c0-1.5-0.6-2.3-1.8-2.3
	c-0.4,0-0.8,0.1-1.1,0.3c-0.3,0.2-0.5,0.5-0.6,0.8c-0.2,0.4-0.3,0.7-0.3,1.1c0,0.4-0.1,0.9-0.1,1.4h-3.6v-0.7c0-1.7,0.5-3,1.4-3.9
	c0.9-0.9,2.3-1.4,4.3-1.4c1.8,0,3.2,0.4,4.1,1.3c0.9,1,1.4,2.3,1.3,3.7c0,0.5-0.1,1.1-0.2,1.6c-0.1,0.5-0.3,1-0.5,1.4
	c-0.2,0.5-0.5,0.9-0.9,1.4c-0.4,0.5-0.8,0.9-1.3,1.4l-2,1.9c-0.5,0.4-0.9,0.9-1.3,1.4c-0.3,0.4-0.4,0.8-0.6,1.2h6.8v2.9H58.4z"/>
</svg>
