<?xml version="1.0" encoding="utf-8"?>
<!-- Generator: Adobe Illustrator 23.0.4, SVG Export Plug-In . SVG Version: 6.00 Build 0)  -->
<svg version="1.1" id="image" xmlns="http://www.w3.org/2000/svg" xmlns:xlink="http://www.w3.org/1999/xlink" x="0px" y="0px"
	 viewBox="0 0 100 100" width="16" height="16" style="enable-background:new 0 0 100 100;" xml:space="preserve">
<style type="text/css">
	.st0{fill:#4D4D4D;}
</style>
<title>FTP</title>
<path class="st0" d="M18.8,62.7V37.3h17.4v4.3H23.9v6.1h10.6v4.3H23.9v10.8L18.8,62.7z"/>
<path class="st0" d="M48,62.7V41.6h-7.5v-4.3h20.2v4.3h-7.5v21.1H48z"/>
<path class="st0" d="M65.7,62.7V37.3H74c2-0.1,4.1,0,6.1,0.4c1.5,0.4,2.7,1.3,3.6,2.5c1.1,1.5,1.6,3.2,1.5,5c0,1.4-0.2,2.7-0.8,3.9
	c-0.5,1-1.2,1.8-2.1,2.4c-0.8,0.6-1.7,1-2.7,1.2c-1.8,0.3-3.5,0.4-5.3,0.4h-3.4v9.6H65.7z M70.8,41.6v7.2h2.8
	c1.4,0.1,2.7-0.1,4.1-0.4c1.3-0.5,2.2-1.8,2.2-3.2c0-0.8-0.3-1.7-0.8-2.3c-0.5-0.6-1.3-1-2.1-1.1c-1.2-0.1-2.4-0.2-3.6-0.2
	L70.8,41.6z"/>
</svg>
