<?xml version="1.0" encoding="utf-8"?>
<!-- Generator: Adobe Illustrator 23.0.4, SVG Export Plug-In . SVG Version: 6.00 Build 0)  -->
<svg version="1.1" id="image" xmlns="http://www.w3.org/2000/svg" xmlns:xlink="http://www.w3.org/1999/xlink" x="0px" y="0px"
	 viewBox="0 0 100 100" width="32" height="32" style="enable-background:new 0 0 100 100;" xml:space="preserve">
<style type="text/css">
	.st0{fill:url(#path3639_1_);}
	.st1{fill:url(#path3667_1_);}
	.st2{fill:url(#path2851_1_);}
</style>
<title>Microsoft SQL Server</title>
<linearGradient id="path3639_1_" gradientUnits="userSpaceOnUse" x1="3886.4434" y1="-1959.7405" x2="3958.8296" y2="-1916.9688" gradientTransform="matrix(0.38 0 0 -0.38 -1445.4489 -666.498)">
	<stop  offset="0" style="stop-color:#909CA9"/>
	<stop  offset="1" style="stop-color:#EDEDEE"/>
</linearGradient>
<path class="st0" d="M62.2,47.2l-14.1,4.6l-12.2,5.4l-3.4,0.9c-0.8,0.8-1.8,1.7-2.7,2.5c-1.1,0.9-2.1,1.8-2.9,2.4
	c-1,0.8-2,1.8-2.8,2.7c-0.8,1.1-1.5,2.3-2,3.5c-0.6,1.8-0.3,3.7,0.8,5.2c1.5,2.1,4.4,4.3,7.7,5.8c2.2,0.9,4.4,1.7,6.8,2.3
	c4.7,1.1,9.6,1.8,14.4,2c0.6,0.1,1.3,0.1,1.9,0c0.5-0.8,1-1.7,1.4-2.6c2.1-4.2,3.8-8.7,5-13.2c0.6-3,1.1-6.1,1.3-9.1
	c0.1-1.1,0.1-4.5,0.1-5.6c-0.1-1.7-0.3-3.3-0.6-5c0-0.1-0.1-0.3,0-0.4c0.1,0,0.1-0.1,1.9-0.6L62.2,47.2z M58.9,49.1
	c0.3,1.8,0.5,3.6,0.6,5.3c0,0.2,0,0.5,0,0.7c-0.1,0-1.8-1-3-1.8c-1.1-0.7-3.1-2-3.4-2.3c-0.1-0.1-0.1-0.1,0.8-0.4
	C55.3,50.2,58.9,49.1,58.9,49.1L58.9,49.1z M51.8,51.4c0.4,0.1,0.6,0.3,0.9,0.5c2.1,1.3,4.2,2.5,6.4,3.6c0.4,0.1,0.4,0.1-0.5,0.7
	c-2.3,1.5-4.8,2.8-7.3,3.9c-0.5,0.2-0.9,0.4-1,0.4c0-0.2,0.1-0.4,0.1-0.6c0.7-2.5,1.1-4.9,1.1-7.5C51.6,51.5,51.6,51.5,51.8,51.4
	L51.8,51.4z M50.3,52c0.1,1.1,0,2-0.1,3.1c-0.2,1.5-0.5,3.1-1,4.6c-0.1,0.4-0.2,0.7-0.2,0.8c-0.7-0.6-1.3-1.3-2-1.9
	c-0.8-0.8-1.4-1.8-2-2.8c-0.2-0.4-0.4-0.9-0.6-1.4C44.6,54.2,50.2,52,50.3,52L50.3,52z M43.3,54.7L43.3,54.7
	c0.1,0.1,0.1,0.3,0.1,0.4c0.4,1.1,1.1,2.2,1.8,3.2s1.5,1.8,2.5,2.7l0.6,0.4c0.1,0.1,0.1,0.1-1.6,0.7c-2,0.8-4.2,1.5-6.7,2.4L38.1,65
	c-0.1,0-0.1,0,0.2-0.5c1.6-2.7,3-5.5,4.2-8.4c0.2-0.5,0.4-0.9,0.4-1.1c0-0.1,0.1-0.2,0.2-0.3C43.2,54.7,43.3,54.7,43.3,54.7
	L43.3,54.7z M41.2,55.6c-0.3,0.8-0.6,1.5-1.1,2.2c-1.1,2-2.2,4-3.7,6.4c-0.3,0.4-0.5,0.8-0.6,0.8c-0.1,0.1-0.1,0.1-0.2-0.3
	c-0.4-0.8-0.6-1.6-0.8-2.5c-0.1-1.1-0.1-2.1,0.1-3.2c0.1-0.6,0.1-0.6,0.4-0.8C36.8,57.6,41.2,55.6,41.2,55.6L41.2,55.6z M59.6,56.3
	v0.4c0,2.7-0.2,5.3-0.6,8c-0.1,0.4-0.1,0.8-0.1,0.8l-0.7-0.2c-1.7-0.6-3.4-1.3-4.9-2.1c-0.8-0.4-1.7-1-2.5-1.5c0,0,0.4-0.2,1-0.5
	c2-1.1,3.9-2.2,5.8-3.4c0.6-0.4,1.6-1.1,1.8-1.3L59.6,56.3z M33.2,59.5c0.1,0,0,0.1,0,0.5c-0.1,0.3-0.1,0.8-0.1,1.1
	c-0.1,1.5,0.2,3,0.9,4.3c0.2,0.4,0.4,0.8,0.4,0.8S27.2,68.4,25,69l-1.3,0.4c-0.1,0-0.1,0-0.1-0.1c0.2-1.5,1.4-3.6,3.1-5.3
	c1.1-1.1,2.2-2,3.5-2.7C31.4,60.5,33.1,59.6,33.2,59.5L33.2,59.5z M49.8,62.5c0.2,0.1,0.4,0.2,0.6,0.3c2.5,1.4,5.3,2.5,8.2,3.2
	l0.2,0.1l-0.4,0.2c-1.4,0.8-6.1,2.7-10.8,4.5l-1.5,0.6c-0.1,0-0.1,0.1-0.2,0.1c0,0,0.2-0.4,0.4-0.8c1.3-2.5,2.5-5,3.4-7.6
	C49.7,62.7,49.8,62.5,49.8,62.5L49.8,62.5z M48.1,63c-0.1,0.1-0.1,0.4-0.2,0.5c-1.1,2.5-2.3,5-3.7,7.5c-0.4,0.7-0.7,1.3-0.7,1.3
	s-0.4-0.2-0.7-0.4c-2.1-1.3-4-2.9-5.6-4.7l-0.2-0.2l1-0.3c3.2-0.8,6.3-1.9,9.4-3.2C47.8,63.2,48.1,63,48.1,63L48.1,63z M58.6,66.7
	L58.6,66.7c0,0.2-0.6,2.4-1,4c-0.4,1.3-0.7,2.4-1.3,4.2c-0.3,0.8-0.5,1.5-0.5,1.5h-0.1c-3-0.5-5.8-1.3-8.7-2.5
	c-0.7-0.3-1.8-0.8-1.9-0.8c0.4-0.3,0.9-0.5,1.4-0.7c4.9-2.1,9.9-4.5,11.6-5.6C58.3,66.8,58.4,66.7,58.6,66.7L58.6,66.7z M34.3,67.5
	c0,0-1.3,2-3.2,4.6c-0.6,0.9-1.4,2-1.7,2.4c-0.3,0.4-0.7,1.1-1,1.4L28,76.7l-0.4-0.4c-0.7-0.6-1.4-1.3-2-2c-0.8-1-1.5-2.2-1.8-3.4
	c-0.1-0.5-0.1-0.8,0-0.8c0.1,0,3-0.7,5.6-1.3l3.8-0.8L34.3,67.5L34.3,67.5z M35.7,68l0.4,0.4c1.4,1.6,3.2,3,5,4.1
	c0.2,0.1,0.4,0.2,0.6,0.4c-0.1,0.1-6.5,2.3-9.6,3.4L29,77.3c0,0-0.1-0.1-0.2-0.1L28.5,77l0.3-0.4c1-1.4,2.3-3,5-6.3L35.7,68L35.7,68
	z M44.2,74.1c0,0,0.5,0.1,1.1,0.4c1.3,0.5,2.6,0.9,3.9,1.2c2,0.5,3.9,0.8,6,1.1c0.2,0,0.4,0.1,0.4,0.1s-1.6,0.6-2.8,0.9
	c-1.8,0.6-7.4,2.3-12,3.5l-1.6,0.5c-0.1,0-0.4-0.1-0.4-0.1c0.1-0.2,0.4-0.5,0.6-0.7c1.5-1.8,3-3.8,4.3-5.8
	C43.9,74.6,44.2,74.1,44.2,74.1L44.2,74.1z M42.3,74.2c0,0-0.7,1.2-2,3.3l-1.4,2.3c-0.2,0.4-0.6,0.8-0.7,1.2l-0.3,0.6l-0.1-0.1
	c-0.4-0.1-3.1-1.1-3.8-1.3c-0.8-0.4-1.7-0.7-2.5-1.1c-0.6-0.4-1.3-0.7-1.8-1.2l3.2-0.8c4.6-1.3,7.2-2,8.9-2.5L42.3,74.2L42.3,74.2z
	 M55.6,77.2L55.6,77.2c0.1,0.1-1.7,4.9-2.3,6.4C53.1,84,53,84.1,53,84.1s-2.7-0.4-4.2-0.6c-2.7-0.4-7.1-1.2-8.2-1.4L40.2,82l1.6-0.4
	c3.4-0.8,5.1-1.2,6.8-1.7c2.1-0.6,4.2-1.5,6.3-2.4C55.1,77.5,55.3,77.3,55.6,77.2L55.6,77.2z"/>
<linearGradient id="path3667_1_" gradientUnits="userSpaceOnUse" x1="3886.7358" y1="-1809.3751" x2="3944.9797" y2="-1809.3751" gradientTransform="matrix(0.38 0 0 -0.38 -1445.4489 -666.498)">
	<stop  offset="0" style="stop-color:#939FAB"/>
	<stop  offset="1" style="stop-color:#DCDEE1"/>
</linearGradient>
<path class="st1" d="M47.7,14.4c-2.2,0.6-4.4,1.4-6.4,2.3c-2.7,1-5.1,2.3-7.5,3.7c-0.6,0.4-1.1,0.8-1.4,1.4
	c-0.1,0.1-0.1,0.2-0.1,0.4l1.4,1.3l3.4,1.1l8.1,1.5l9.2,1.6l0.1-0.8h-0.1l-1.2-0.2L53,26.3c-1.3-2.2-2.7-4.9-3.4-6.8
	c-0.6-1.4-1.1-2.8-1.5-4.3C47.8,14.5,47.7,14.5,47.7,14.4L47.7,14.4z M47.5,15L47.5,15c0,0,0.1,0.3,0.1,0.6c0.2,1.5,0.6,3,1.1,4.5
	c0.4,1.2,0.4,1.1-0.1,1c-1.1-0.3-5.9-1.1-9.4-1.6L38,19.3c-0.1-0.1,2.5-1.4,3.7-1.9C43.2,16.7,47.2,15,47.5,15z M37.3,19.7l0.4,0.1
	c3.6,1.1,7.3,1.8,11,2.1c0.2,0,0.4,0,0.6,0.1c-0.2,0.1-0.4,0.3-0.6,0.4c-1.5,0.8-3.2,1.7-4.3,2.4c-0.2,0.1-0.5,0.3-0.7,0.4h-0.6
	L42.8,25L41.7,24c-1.9-1.8-3.4-3.2-3.9-3.7L37.3,19.7z M36.8,20l1.5,1.9c0.8,1.1,1.6,2,1.8,2.3c0.1,0.1,0.2,0.3,0.4,0.4
	c-0.1,0-2.2-0.4-3.3-0.6c-0.8-0.1-1.5-0.4-2.3-0.6l-0.6-0.2V23C34.3,22.3,35.2,21.2,36.8,20L36.8,20L36.8,20z M49.6,22.6
	c0.1,0,0.1,0.1,0.2,0.4c0.4,0.8,1.5,3,1.8,3.4c0.1,0.1,0.2,0.1-1.3-0.1c-3.6-0.6-4.8-0.8-4.8-0.8c0.1-0.1,0.1-0.1,0.2-0.1
	c1.1-0.6,2.3-1.4,3.2-2.3L49.6,22.6C49.5,22.6,49.5,22.6,49.6,22.6L49.6,22.6z"/>
<radialGradient id="path2851_1_" cx="-11328.0781" cy="2057.4358" r="77.3254" gradientTransform="matrix(-0.37 -6.000000e-02 -0.11 0.73 -3900.2461 -2129.1228)" gradientUnits="userSpaceOnUse">
	<stop  offset="0" style="stop-color:#EE352C"/>
	<stop  offset="1" style="stop-color:#A91D22"/>
</radialGradient>
<path class="st2" d="M32.4,21.7c-0.1,0.3-0.1,0.6,0,0.9c0.3,0.4,0.6,0.8,1,1.2c0,0,4.7,4.6,5.3,5.3
	c2.5,2.7,3.9,6.4,3.9,10.1c0.1,2.7-0.5,5.3-1.7,7.7c-2.2,4.9-6.9,10.1-14.1,16l1.1-0.4c1.2-0.8,2.5-1.6,3.8-2.3
	c5.7-3,11.5-5.6,17.6-7.9c9.9-3.7,26.2-8.1,35.5-9.6l1-0.1l-0.1-0.2c-0.6-1.1-1.3-2-2.1-3c-2.1-2.5-4.6-4.7-7.6-6.3
	c-4.1-2.3-9.5-4.2-16.3-5.5c-1.3-0.3-4.1-0.8-6.4-1.1c-4.9-0.8-8-1.3-11.5-1.9c-1.3-0.2-3.1-0.6-4.4-0.8c-1-0.2-1.9-0.4-2.8-0.8
	C33.7,22.9,32.7,22.6,32.4,21.7L32.4,21.7z M35.2,24.4c0.1,0,0.3,0.1,0.4,0.1c0.4,0.1,0.9,0.3,1.5,0.5l1.4,0.4l1.2,0.3
	c0.1,0.1,1.1,3.5,1.5,4.9c0.1,0.5,0.2,0.9,0.2,0.9c-0.1-0.1-0.2-0.3-0.3-0.4c-1.4-2.4-3.3-4.5-5.5-6.2
	C35.4,24.6,35.2,24.4,35.2,24.4z M40.4,25.8c0.2,0,0.4,0.1,0.6,0.1c1.8,0.4,5.1,1.1,7.1,1.4c0.2,0,0.4,0.1,0.6,0.1
	c-0.1,0.1-0.2,0.1-0.3,0.2c-0.4,0.1-1.8,1.1-2.3,1.3c-1.1,0.7-2.1,1.5-3,2.4c-0.3,0.3-0.6,0.6-0.6,0.6c-0.1-0.1-0.1-0.3-0.1-0.4
	c-0.5-1.8-1.1-3.5-1.9-5.2C40.5,26.1,40.4,25.9,40.4,25.8L40.4,25.8z M49.6,27.6c0.2,0.4,0.4,0.8,0.4,1.2c0.4,1.6,0.6,3.2,0.5,4.9
	c0,0.4-0.1,0.8-0.1,0.9v0.1l-0.6-0.2c-1.1-0.4-3-0.9-4.6-1.3c-0.9-0.3-1.6-0.5-1.6-0.5c0.6-0.6,1.2-1.3,1.9-1.9
	C46.8,29.6,48.2,28.6,49.6,27.6z M50.3,27.7c0,0,4.4,0.7,6.4,1.1c1.5,0.3,3.6,0.7,3.7,0.8s-0.1,0.1-0.8,0.5c-2.4,1.1-4.8,2.3-7,3.8
	c-0.6,0.4-1,0.6-1,0.6s0-0.3,0-0.7c0-2-0.4-3.9-1.1-5.8C50.4,27.9,50.3,27.8,50.3,27.7L50.3,27.7z M61.6,30c0,0.5-0.1,0.9-0.2,1.4
	c-0.6,2.2-1.5,4.2-2.7,6.1c-0.1,0.2-0.3,0.5-0.4,0.7c-0.2-0.1-0.4-0.2-0.6-0.4c-1.3-0.8-2.7-1.5-4.2-2l-0.8-0.4
	c1.7-1.2,3.4-2.4,5.1-3.4C59.3,31.2,61.6,29.9,61.6,30L61.6,30z M62.4,30c0.1,0,2,0.6,3,0.8c2.5,0.7,4.9,1.6,7.3,2.7l0.8,0.4
	L72.9,34c-4.2,0.9-8.3,2.2-12.2,3.8l-0.6,0.2c0.1-0.2,0.1-0.4,0.2-0.6c1.1-2.3,1.8-4.6,2-7.1C62.4,30.3,62.4,30.2,62.4,30L62.4,30z
	 M43.2,34.5c0,0,1.5,0.4,2.3,0.6c1.2,0.4,3.8,1.2,3.8,1.3c0,0.1-0.3,0.3-0.6,0.6c-1.4,1.2-2.7,2.4-4.4,3.9c-0.5,0.5-0.9,0.8-0.9,0.8
	s0-0.1,0-0.1c0.2-2.1,0.2-4.3-0.1-6.4C43.2,34.9,43.2,34.7,43.2,34.5L43.2,34.5z M74.2,34.5c0,0-0.7,1.1-1.1,1.8
	c-0.6,0.9-1.5,2.1-3.7,4.8l-2.8,3.5c-0.4,0.6-0.8,1-0.8,1c-0.1-0.1-0.2-0.3-0.3-0.4c-1.2-1.8-2.6-3.4-4.2-4.7l-0.8-0.6
	c-0.1-0.1-0.1-0.1-0.2-0.1c0,0,1.8-0.8,3.2-1.3c2.4-1,5.7-2.2,8.2-2.9C72.9,34.9,74.2,34.5,74.2,34.5L74.2,34.5z M75,34.7
	c0.2,0.1,0.4,0.1,0.6,0.3c2.6,1.5,5,3.3,7.1,5.4c0.6,0.6,2,2,1.9,2l-1.1,0.1c-5.3,0.5-10.6,1.3-15.7,2.6l-0.7,0.1
	c0,0,0.4-0.4,0.9-0.9c3.2-3.1,4.7-5.1,6.5-8.6C74.8,35.2,75,34.8,75,34.7L75,34.7z M51.4,37.1c0.1,0,1.5,0.7,2.6,1.2
	c1.1,0.5,2.4,1.3,2.5,1.3S56,40,55.3,40.2c-2,1-3.7,2-5.5,3c-0.5,0.3-0.9,0.6-0.9,0.6s0-0.1,0.3-0.6c1-1.8,1.7-3.8,2.2-5.8
	C51.3,37.3,51.3,37.1,51.4,37.1z M50,37.4c-0.1,0.7-0.4,1.4-0.6,2c-0.5,1.5-1.1,3-1.9,4.3c-0.1,0.3-0.4,0.7-0.6,1l-0.3,0.4l-0.6-0.6
	c-0.6-0.6-1.3-1.1-2-1.5c-0.2-0.1-0.4-0.2-0.5-0.3c1-1.1,2.1-2,3.2-3C47.9,39,50,37.4,50,37.4L50,37.4z M58.4,40.9l0.5,0.4
	c1.3,0.8,2.5,1.7,3.7,2.7c0.6,0.5,1.8,1.5,2,1.8l0.1,0.1l-0.8,0.2c-4.9,1.3-8.7,2.5-13,4.2c-0.5,0.1-0.9,0.4-0.9,0.4s-0.1,0.1,1-0.9
	c2.7-2.5,5.1-5.2,7.2-8.2L58.4,40.9z M56.2,41.4c0,0-1.4,2.1-2.3,3.2c-1.1,1.4-2.9,3.7-4.2,5.2c-0.6,0.6-1,1.1-1,1.2
	s-0.1-0.1-0.1-0.4c0-1.3-0.4-2.6-0.9-3.8c-0.2-0.5-0.3-0.6-0.2-0.6c0.2-0.1,3.3-2,5.3-3C54.1,42.5,56.2,41.4,56.2,41.4z M42.8,44.7
	c0.2,0.1,0.4,0.1,0.6,0.3c0.6,0.4,1.3,0.8,1.8,1.3c-0.2,0.2-0.4,0.4-0.6,0.5c-1,0.7-2.5,1.9-3.4,2.6c-0.9,0.7-1,0.8-0.8,0.6
	c0.5-0.8,1-1.6,1.4-2.5c0.4-0.7,0.6-1.4,0.9-2.2C42.6,45.1,42.7,45,42.8,44.7L42.8,44.7z M46.4,47.6c0.1,0,0.1,0.1,0.4,0.5
	c0.6,0.9,1.1,2,1.2,3.1v0.2l-1.5,0.6c-2.6,1-5,2-6.6,2.7c-0.4,0.2-1.3,0.6-1.8,0.8s-1,0.5-1,0.5s0.4-0.3,0.7-0.6
	c3-2.1,5.7-4.6,8-7.4C46.1,47.9,46.2,47.7,46.4,47.6L46.4,47.6z M44.7,48c-0.6,0.8-1.3,1.5-2,2.3c-2,2-4.2,3.8-6.6,5.3l-0.6,0.4
	c-0.1,0,0-0.1,1.1-1.3c0.7-0.8,1.2-1.4,1.8-2.2c0.3-0.4,0.6-0.8,1.1-1C41.1,50.4,44.7,47.9,44.7,48z"/>
</svg>
