<?xml version="1.0" encoding="utf-8"?>
<!-- Generator: Adobe Illustrator 23.0.6, SVG Export Plug-In . SVG Version: 6.00 Build 0)  -->
<svg version="1.1" id="image" xmlns="http://www.w3.org/2000/svg" xmlns:xlink="http://www.w3.org/1999/xlink" x="0px" y="0px"
	 viewBox="0 0 100 100" width="16" height="16" style="enable-background:new 0 0 100 100;" xml:space="preserve">
<style type="text/css">
	.st0{fill:#F80000;}
</style>
<title>Oracle</title>
<path class="st0" d="M43,51.6h5.3L45.5,47l-5.2,8.2H38l6.3-9.8c0.3-0.4,0.7-0.6,1.2-0.6c0.5,0,0.9,0.2,1.2,0.6
	l6.3,9.9h-2.4l-1.1-1.8h-5.4L43,51.6z M67.4,53.4v-8.6h-2v9.4c0,0.3,0.1,0.5,0.3,0.7c0.2,0.2,0.4,0.3,0.7,0.3h9.1l1.2-1.8H67.4z
	 M34.4,51.9c1.9,0,3.5-1.6,3.5-3.5c0-1.9-1.6-3.5-3.5-3.5h-8.7v10.4h2v-8.6h6.6c0.9,0,1.7,0.8,1.7,1.7c0,0.9-0.7,1.7-1.7,1.7l-5.6,0
	l6,5.2h2.9l-4-3.4H34.4z M13.4,55.2c-2.9,0-5.2-2.3-5.2-5.2c0-2.9,2.3-5.2,5.2-5.2h6c2.9,0,5.2,2.3,5.2,5.2c0,2.9-2.3,5.2-5.2,5.2
	H13.4z M19.3,53.4c1.9,0,3.4-1.5,3.4-3.4c0-1.9-1.5-3.4-3.4-3.4h-5.8c-1.9,0-3.4,1.5-3.4,3.4c0,1.9,1.5,3.4,3.4,3.4H19.3z
	 M57.2,55.2c-2.9,0-5.2-2.3-5.2-5.2c0-2.9,2.3-5.2,5.2-5.2h7.2l-1.2,1.8h-5.9c-1.9,0-3.4,1.5-3.4,3.4c0,1.9,1.5,3.4,3.4,3.4h7.2
	l-1.2,1.8H57.2z M81.6,53.4c-1.5,0-2.8-1-3.2-2.4h8.5l1.2-1.8h-9.7c0.4-1.4,1.7-2.4,3.2-2.4h5.9l1.2-1.8h-7.2
	c-2.9,0-5.2,2.3-5.2,5.2c0,2.9,2.3,5.2,5.2,5.2h6.2l1.2-1.8H81.6"/>
<path class="st0" d="M89.7,46c0-0.5,0.4-0.9,0.9-0.9c0.5,0,0.9,0.4,0.9,0.9c0,0.5-0.4,0.9-0.9,0.9
	C90.1,46.9,89.7,46.5,89.7,46z M90.6,47.1c0.6,0,1.2-0.5,1.2-1.2s-0.5-1.2-1.2-1.2c-0.6,0-1.2,0.5-1.2,1.2S90,47.1,90.6,47.1z
	 M90.5,45.3c0.2,0,0.3,0,0.3,0c0.2,0.1,0.3,0.3,0.3,0.4c0,0,0,0.1,0,0.1c0,0,0,0.1-0.2,0.2c0,0,0,0-0.1,0l0.3,0.5h-0.3l-0.3-0.5
	h-0.2v0.5h-0.3v-1.3H90.5z M90.6,45.9c0.1,0,0.2,0,0.2-0.1c0,0,0-0.1,0-0.1c0-0.1,0-0.1-0.1-0.2c-0.1,0-0.1,0-0.2,0h-0.1v0.4H90.6"
	/>
</svg>
