<?xml version="1.0" encoding="utf-8"?>
<!-- Generator: Adobe Illustrator 23.0.6, SVG Export Plug-In . SVG Version: 6.00 Build 0)  -->
<svg version="1.1" id="image" xmlns="http://www.w3.org/2000/svg" xmlns:xlink="http://www.w3.org/1999/xlink" x="0px" y="0px"
	 viewBox="0 0 100 100" width="16" height="16" style="enable-background:new 0 0 100 100;" xml:space="preserve">
<style type="text/css">
	.st0{fill:#205B97;}
	.st1{fill:#5193CE;}
	.st2{fill:#2E73B7;}
</style>
<title>Amazon Redshift</title>
<path class="st0" d="M50,67.2l24.7,5.9V26.8L50,32.7L50,67.2z"/>
<path class="st1" d="M74.7,26.8l4.7,2.4v41.6l-4.7,2.4V26.8z M50,67.2l-24.7,5.9V26.8L50,32.7V67.2z"/>
<path class="st0" d="M25.3,26.8l-4.7,2.4v41.6l4.7,2.4V26.8z"/>
<path class="st1" d="M56.3,82.5l9.4-4.7V22.2l-9.4-4.7l-2.9,30.9L56.3,82.5z"/>
<path class="st0" d="M43.7,82.5l-9.4-4.7V22.2l9.4-4.7l2.9,30.9L43.7,82.5z"/>
<path class="st2" d="M43.7,17.5h12.7v64.8H43.7V17.5z"/>
</svg>
