<?xml version="1.0" encoding="utf-8"?>
<!-- Generator: Adobe Illustrator 23.0.4, SVG Export Plug-In . SVG Version: 6.00 Build 0)  -->
<svg version="1.1" id="image" xmlns="http://www.w3.org/2000/svg" xmlns:xlink="http://www.w3.org/1999/xlink" x="0px" y="0px"
	 viewBox="0 0 100 100" width="16" height="16" style="enable-background:new 0 0 100 100;" xml:space="preserve">
<style type="text/css">
	.st0{fill:#8C2F1E;}
	.st1{fill:#DF533F;}
	.st2{fill:#8D3322;}
	.st3{fill:#DF513D;}
	.st4{fill:#DE513D;}
	.st5{fill:#612015;}
	.st6{fill:#DE503C;}
	.st7{fill:#EFABA3;}
	.st8{fill:#8C301F;}
</style>
<title>Amazon S3</title>
<polygon class="st0" points="74.8,26.9 74.8,72.7 50,67.4 50,32.6 "/>
<polygon class="st1" points="74.8,26.9 79.5,29.5 79.5,70.9 74.8,72.7 "/>
<polygon class="st2" points="25.2,26.9 20.5,29.5 20.5,70.9 25.2,72.7 "/>
<polygon class="st3" points="25.2,26.9 25.2,72.7 50,67.4 50,32.6 "/>
<polygon class="st4" points="50,14.7 50,32.6 60.6,35.1 60.6,20.1 "/>
<polygon class="st5" points="39.4,35.1 50,37.3 60.6,35.1 50,32.6 "/>
<polygon class="st6" points="50,85.3 50,67.4 60.6,64.9 60.6,79.9 "/>
<polygon class="st7" points="60.6,64.9 50,62.7 39.4,64.9 50,67.4 "/>
<polygon class="st6" points="60.6,42.6 60.6,57.7 50,58.9 50,41.1 "/>
<polygon class="st8" points="50,14.7 50,32.6 39.4,35.1 39.4,20.1 "/>
<polygon class="st8" points="50,85.3 50,67.4 39.4,64.9 39.4,79.9 "/>
<polygon class="st8" points="39.4,42.6 39.4,57.7 50,58.9 50,41.1 "/>
</svg>
