<?xml version="1.0" encoding="utf-8"?>
<!-- Generator: Adobe Illustrator 23.0.4, SVG Export Plug-In . SVG Version: 6.00 Build 0)  -->
<svg version="1.1" id="image" xmlns="http://www.w3.org/2000/svg" xmlns:xlink="http://www.w3.org/1999/xlink" x="0px" y="0px"
	 viewBox="0 0 100 100" width="32" height="32" style="enable-background:new 0 0 100 100;" xml:space="preserve">
<style type="text/css">
	.st0{filter:url(#Adobe_OpacityMaskFilter);}
	.st1{fill-rule:evenodd;clip-rule:evenodd;fill:#FFFFFF;}
	.st2{mask:url(#mask_1_);}
	.st3{fill-rule:evenodd;clip-rule:evenodd;fill:#00A1E0;}
	.st4{fill-rule:evenodd;clip-rule:evenodd;fill:#FFFFFE;}
</style>
<title>Salesforce</title>
<defs>
	<filter id="Adobe_OpacityMaskFilter" filterUnits="userSpaceOnUse" x="10.8" y="24.5" width="78.4" height="55">
		<feColorMatrix  type="matrix" values="1 0 0 0 0  0 1 0 0 0  0 0 1 0 0  0 0 0 1 0"/>
	</filter>
</defs>
<mask maskUnits="userSpaceOnUse" x="10.8" y="24.5" width="78.4" height="55" id="mask_1_">
	<g class="st0">
		<path class="st1" d="M10.9,24.5h78.6v54.9H10.9V24.5z"/>
	</g>
</mask>
<g class="st2">
	<path class="st3" d="M43.5,30.5c5.3-5.5,14-5.7,19.5-0.5c1,1,1.9,2.1,2.6,3.4c2.2-1,4.5-1.5,6.9-1.5c9.4,0.2,16.9,8,16.7,17.5
		c-0.2,9.2-7.6,16.5-16.7,16.7c-1.1,0-2.2-0.1-3.3-0.3c-3.2,5.7-10.3,8-16.2,5.1c-3,7.2-11.3,10.5-18.5,7.5
		c-3.6-1.5-6.4-4.5-7.7-8.1c-0.9,0.2-1.8,0.3-2.7,0.3c-7.3-0.1-13.2-6.1-13.1-13.4c0.1-4.6,2.5-8.9,6.6-11.3c-0.8-1.9-1.3-4-1.3-6.1
		c0-8.4,6.9-15.3,15.3-15.2C36.2,24.5,40.6,26.7,43.5,30.5"/>
</g>
<path class="st4" d="M22.2,53c0,0.1,0,0.2,0,0.2c0.1,0.1,0.3,0.2,0.4,0.3c0.7,0.4,1.5,0.6,2.4,0.5c1.6,0,2.6-0.9,2.6-2.2l0,0
	c0-1.3-1.1-1.7-2.2-2.1l-0.1-0.1c-0.8-0.3-1.5-0.5-1.5-1l0,0c0-0.5,0.4-0.8,1-0.8c0.7,0,1.4,0.2,2,0.5c0,0,0.2,0.1,0.2,0
	c0.1-0.1,0.3-0.8,0.3-0.9c0-0.1,0-0.1-0.1-0.2c-0.7-0.4-1.5-0.6-2.3-0.6h-0.2c-1.5,0-2.5,0.9-2.5,2.2l0,0c0,1.3,1.1,1.8,2.2,2.1
	l0.2,0.1c0.8,0.2,1.4,0.4,1.4,1l0,0c0,0.5-0.4,0.9-1.1,0.9c-0.7,0-1.5-0.2-2.1-0.6L22.7,52c0,0-0.2-0.1-0.2,0.1L22.2,53 M45.8,53
	c-0.1,0.1,0,0.2,0,0.2c0.1,0.1,0.3,0.2,0.4,0.3c0.7,0.4,1.5,0.6,2.4,0.5c1.6,0,2.6-0.9,2.6-2.2l0,0c0-1.3-1.1-1.7-2.2-2.1l-0.1,0
	c-0.8-0.3-1.5-0.5-1.5-1l0,0c0-0.5,0.4-0.8,1-0.8c0.7,0,1.4,0.2,2,0.5c0,0,0.2,0.1,0.2,0l0.3-0.9c0-0.1,0-0.1-0.1-0.2
	c-0.7-0.4-1.5-0.6-2.3-0.6h-0.2c-1.5,0-2.5,0.9-2.5,2.2l0,0c0,1.3,1.1,1.8,2.2,2.1l0.2,0.1c0.8,0.2,1.4,0.4,1.4,1l0,0
	c0,0.5-0.4,0.9-1.1,0.9c-0.7,0-1.5-0.2-2.1-0.6L46.3,52c-0.1,0-0.2,0-0.2,0c0,0,0,0,0,0L45.8,53 M61.9,50.3c0,0.6-0.1,1.3-0.4,1.8
	c-0.6,0.7-1.6,0.8-2.3,0.3c-0.1-0.1-0.2-0.2-0.3-0.3c-0.3-0.6-0.5-1.2-0.4-1.8c0-0.6,0.1-1.3,0.4-1.8c0.6-0.7,1.6-0.8,2.3-0.3
	c0.1,0.1,0.2,0.2,0.3,0.3C61.8,49,61.9,49.7,61.9,50.3 M63.2,48.9c-0.1-0.4-0.3-0.8-0.6-1.2c-0.3-0.3-0.6-0.6-1-0.8
	c-0.5-0.2-0.9-0.3-1.4-0.3c-0.5,0-1,0.1-1.4,0.3c-0.4,0.2-0.7,0.5-1,0.8c-0.3,0.3-0.5,0.7-0.6,1.2c-0.1,0.5-0.2,1-0.2,1.4
	c0,0.5,0.1,1,0.2,1.4c0.1,0.4,0.3,0.8,0.6,1.2c0.3,0.3,0.6,0.6,1,0.8c0.9,0.4,2,0.4,2.9,0c0.4-0.2,0.8-0.4,1-0.8
	c0.3-0.3,0.5-0.7,0.6-1.2c0.1-0.5,0.2-0.9,0.2-1.4C63.4,49.8,63.4,49.3,63.2,48.9 M74.3,52.6c0-0.1-0.1-0.1-0.2-0.1c0,0,0,0,0,0
	c-0.2,0.1-0.4,0.1-0.6,0.2c-0.2,0-0.5,0.1-0.7,0.1c-0.6,0-1.2-0.2-1.6-0.6c-0.4-0.5-0.6-1.2-0.6-1.8c0-0.6,0.2-1.3,0.5-1.8
	c0.4-0.5,0.9-0.7,1.5-0.7c0.5,0,1,0.1,1.4,0.2c0.1,0,0.1,0,0.2-0.1c0,0,0,0,0,0l0.3-0.9c0-0.1,0-0.1-0.1-0.2c0,0,0,0,0,0
	c-0.3-0.1-0.6-0.2-0.9-0.2c-0.3,0-0.7-0.1-1-0.1c-0.5,0-1,0.1-1.5,0.3c-0.4,0.2-0.8,0.4-1.1,0.8c-0.3,0.3-0.5,0.7-0.6,1.2
	c-0.1,0.5-0.2,1-0.2,1.5c0,1,0.3,1.9,0.9,2.7c0.7,0.7,1.7,1.1,2.7,1c0.7,0,1.3-0.1,1.9-0.3c0.1,0,0.1-0.1,0.1-0.2L74.3,52.6
	 M76.6,49.6c0-0.4,0.2-0.7,0.4-1.1c0.3-0.5,0.8-0.7,1.3-0.7c0.5,0,1,0.2,1.3,0.7c0.2,0.3,0.3,0.7,0.3,1.1L76.6,49.6z M81.2,48.6
	c-0.1-0.4-0.3-0.8-0.6-1.1c-0.2-0.3-0.5-0.5-0.9-0.7c-0.4-0.2-0.9-0.3-1.3-0.3c-0.5,0-1,0.1-1.5,0.3c-0.4,0.2-0.8,0.4-1,0.8
	c-0.3,0.3-0.5,0.8-0.6,1.2c-0.1,0.5-0.2,1-0.2,1.5c0,0.5,0.1,1,0.2,1.5c0.1,0.4,0.4,0.8,0.7,1.2c0.3,0.3,0.7,0.6,1.1,0.8
	c0.5,0.2,1.1,0.3,1.7,0.3c0.8,0.1,1.6-0.1,2.3-0.4c0,0,0.1-0.1,0-0.2l-0.3-0.8c0-0.1-0.1-0.1-0.2-0.1c0,0,0,0,0,0
	c-0.6,0.2-1.2,0.4-1.9,0.3c-0.6,0-1.1-0.2-1.6-0.5c-0.4-0.4-0.6-1-0.5-1.5h4.6c0.1,0,0.1-0.1,0.1-0.1C81.4,50,81.3,49.3,81.2,48.6
	L81.2,48.6z M40.2,49.6c0-0.4,0.2-0.7,0.4-1.1c0.3-0.4,0.8-0.7,1.3-0.7c0.5,0,1,0.2,1.3,0.7c0.2,0.3,0.3,0.7,0.3,1.1L40.2,49.6z
	 M44.7,48.6c-0.1-0.4-0.3-0.8-0.6-1.1c-0.2-0.3-0.5-0.5-0.9-0.7c-0.4-0.2-0.9-0.3-1.3-0.3c-0.5,0-1,0.1-1.5,0.3
	c-0.4,0.2-0.8,0.4-1.1,0.8c-0.3,0.3-0.5,0.8-0.6,1.2c-0.1,0.5-0.2,1-0.2,1.5c0,0.5,0.1,1,0.2,1.5c0.1,0.4,0.4,0.8,0.7,1.2
	c0.3,0.3,0.7,0.6,1.1,0.8c0.5,0.2,1.1,0.3,1.7,0.3c0.8,0.1,1.6-0.1,2.3-0.4c0.1,0,0.1-0.1,0-0.2l-0.3-0.8c0-0.1-0.1-0.1-0.2-0.1
	c0,0,0,0,0,0c-0.6,0.3-1.2,0.4-1.9,0.3c-1,0.1-2-0.6-2.1-1.6c0-0.1,0-0.3,0-0.4h4.6c0.1,0,0.1-0.1,0.1-0.1
	C44.9,49.9,44.9,49.3,44.7,48.6z M30.3,52.5c-0.1-0.1-0.2-0.2-0.3-0.3c-0.1-0.2-0.1-0.4-0.1-0.6c0-0.3,0.1-0.7,0.4-0.9
	c0.4-0.3,0.9-0.4,1.3-0.3c0.4,0,0.8,0,1.2,0.1v2.1l0,0c-0.4,0.1-0.8,0.1-1.2,0.2C31.2,52.9,30.7,52.8,30.3,52.5z M32.1,49.3
	c-0.2,0-0.4,0-0.7,0c-0.4,0-0.8,0-1.1,0.1c-0.3,0.1-0.7,0.2-0.9,0.4c-0.3,0.2-0.5,0.5-0.7,0.7c-0.2,0.3-0.2,0.7-0.2,1.1
	c0,0.4,0.1,0.7,0.2,1.1c0.1,0.3,0.3,0.5,0.6,0.7c0.3,0.2,0.6,0.3,0.9,0.4C30.6,54,31,54,31.4,54c0.5,0,0.9,0,1.4-0.1
	c0.4-0.1,0.8-0.1,1.1-0.2l0.3-0.1c0.1,0,0.1-0.1,0.1-0.1v-4.2c0.1-0.7-0.2-1.4-0.7-2c-0.6-0.5-1.3-0.7-2.1-0.6c-0.4,0-0.8,0-1.2,0.1
	c-0.5,0.1-1,0.3-1.4,0.5c-0.1,0-0.1,0.1,0,0.2l0.3,0.9c0,0.1,0.1,0.1,0.1,0.1h0.1c0.6-0.3,1.3-0.5,2-0.5c0.4,0,0.8,0.1,1.1,0.3
	c0.3,0.2,0.4,0.5,0.4,1.1v0.2C32.5,49.4,32.1,49.4,32.1,49.3L32.1,49.3z M68.9,47c0-0.1,0-0.1-0.1-0.2l0,0c-0.3-0.1-0.5-0.1-0.8-0.1
	c-0.4,0-0.8,0-1.2,0.2c-0.3,0.1-0.6,0.3-0.8,0.6v-0.6c0-0.1-0.1-0.1-0.1-0.1c0,0,0,0,0,0h-1.1c-0.1,0-0.1,0.1-0.1,0.1c0,0,0,0,0,0
	v6.8c0,0.1,0.1,0.1,0.1,0.1H66c0.1,0,0.1-0.1,0.1-0.1v-3.4c0-0.4,0-0.8,0.1-1.2c0.1-0.3,0.2-0.5,0.4-0.7c0.2-0.2,0.4-0.3,0.6-0.3
	c0.2-0.1,0.4-0.1,0.6-0.1c0.2,0,0.3,0,0.5,0.1c0.1,0,0.1,0,0.2-0.1C68.6,47.8,68.8,47.1,68.9,47"/>
<path class="st4" d="M57.6,43.9c-0.1,0-0.3-0.1-0.5-0.1c-0.2,0-0.4,0-0.6,0c-0.7,0-1.4,0.2-1.9,0.7c-0.5,0.6-0.8,1.3-0.9,2.1
	l-0.1,0.3h-1c-0.1,0-0.1,0.1-0.1,0.1l-0.2,0.9c0,0.1,0,0.1,0.1,0.1h1l-1,5.7c-0.1,0.4-0.1,0.8-0.3,1.1c-0.1,0.2-0.2,0.5-0.3,0.7
	c-0.1,0.1-0.2,0.3-0.4,0.3c-0.2,0-0.4,0.1-0.5,0.1c-0.1,0-0.2,0-0.4,0c-0.1,0-0.2,0-0.2-0.1c-0.1,0-0.1,0-0.2,0.1c0,0,0,0,0,0
	c0,0.1-0.3,0.8-0.3,0.9c0,0.1,0,0.2,0.1,0.2c0.1,0,0.3,0.1,0.4,0.1c0.2,0,0.4,0.1,0.7,0.1c0.4,0,0.8-0.1,1.1-0.2
	c0.3-0.1,0.6-0.3,0.8-0.6c0.3-0.3,0.5-0.6,0.6-1c0.2-0.5,0.3-1,0.4-1.5l1-5.8h1.5c0.1,0,0.1-0.1,0.1-0.1l0.2-0.9
	c0-0.1,0-0.1-0.1-0.1h-1.5c0.1-0.4,0.1-0.7,0.2-1.1c0.1-0.2,0.2-0.4,0.3-0.5c0.1-0.1,0.2-0.2,0.4-0.2c0.2,0,0.3-0.1,0.5-0.1
	c0.1,0,0.2,0,0.4,0l0.2,0.1c0.1,0,0.2,0,0.2-0.1l0.4-1C57.7,43.9,57.7,43.8,57.6,43.9C57.6,43.8,57.6,43.8,57.6,43.9 M37.3,53.7
	c0,0.1-0.1,0.1-0.1,0.1H36c-0.1,0-0.1-0.1-0.1-0.1V44c0-0.1,0-0.1,0.1-0.1c0,0,0,0,0,0h1.2c0.1,0,0.1,0.1,0.1,0.1c0,0,0,0,0,0
	L37.3,53.7"/>
</svg>
