<?xml version="1.0" encoding="utf-8"?>
<!-- Generator: Adobe Illustrator 23.0.4, SVG Export Plug-In . SVG Version: 6.00 Build 0)  -->
<svg version="1.1" id="image" xmlns="http://www.w3.org/2000/svg" xmlns:xlink="http://www.w3.org/1999/xlink" x="0px" y="0px"
	 viewBox="0 0 100 100" width="32" height="32" style="enable-background:new 0 0 100 100;" xml:space="preserve">
<style type="text/css">
 	.st0{fill:#4D4D4D;}
</style>
<title>SFTP</title>
<path class="st0" d="M11.57,53.66l4.12-.41a5,5,0,0,0,1.51,3,4.56,4.56,0,0,0,3.07,1,4.7,4.7,0,0,0,3.08-.86,2.59,2.59,0,0,0,1-2A1.92,1.92,0,0,0,24,53.12a3.5,3.5,0,0,0-1.52-.91c-.5-.17-1.63-.48-3.39-.91a11.57,11.57,0,0,1-4.78-2.08A5.44,5.44,0,0,1,12.33,45a5.36,5.36,0,0,1,.91-3,5.65,5.65,0,0,1,2.61-2.12A10.45,10.45,0,0,1,20,39.15q3.94,0,5.94,1.73A6.14,6.14,0,0,1,28,45.5l-4.23.19a3.65,3.65,0,0,0-1.17-2.33,4.29,4.29,0,0,0-2.68-.7,4.87,4.87,0,0,0-2.89.75,1.53,1.53,0,0,0-.67,1.31A1.62,1.62,0,0,0,17,46a11.14,11.14,0,0,0,3.89,1.4,20.75,20.75,0,0,1,4.57,1.51A5.87,5.87,0,0,1,27.78,51a6.6,6.6,0,0,1-.16,6.72,6.06,6.06,0,0,1-2.83,2.34,12.09,12.09,0,0,1-4.57.76A9,9,0,0,1,14.12,59,8,8,0,0,1,11.57,53.66Z"/>
<path class="st0" d="M33.68,60.48v-21H48.05v3.55H37.91v5h8.75v3.55H37.91v8.91Z"/>
<path class="st0" d="M57.73,60.48V43.06H51.51V39.51H68.17v3.55H62V60.48Z"/>
<path class="st0" d="M72.37,60.48v-21h6.79a24.82,24.82,0,0,1,5,.31,5.55,5.55,0,0,1,3,2.06A6.49,6.49,0,0,1,88.43,46a6.82,6.82,0,0,1-.7,3.25A5.81,5.81,0,0,1,86,51.27a6.27,6.27,0,0,1-2.2,1,24.15,24.15,0,0,1-4.39.3H76.6v7.91ZM76.6,43.06V49h2.32a11,11,0,0,0,3.35-.33A2.76,2.76,0,0,0,84.07,46a2.73,2.73,0,0,0-.67-1.89,2.9,2.9,0,0,0-1.71-.93,19.74,19.74,0,0,0-3-.14Z"/>
</svg>
