<?xml version="1.0" encoding="utf-8"?>
<!-- Generator: Adobe Illustrator 24.0.2, SVG Export Plug-In . SVG Version: 6.00 Build 0)  -->
<svg version="1.1" id="image" xmlns="http://www.w3.org/2000/svg" xmlns:xlink="http://www.w3.org/1999/xlink" x="0px" y="0px"
	 viewBox="0 0 100 100" width="32" height="32" style="enable-background:new 0 0 100 100;" xml:space="preserve">
<style type="text/css">
	.st0{fill:#31BEF0;}
</style>
<path class="st0" d="M44.8,39.6c0.9-0.9,1.4-2,1.3-3.3V19.3c-0.1-2.4-2-4.3-4.4-4.2c-2.3,0.1-4.2,1.9-4.2,4.2v9.8l-8.3-4.9
	c-2.1-1.3-4.7-0.7-5.9,1.3c-1.3,2.1-0.7,4.7,1.3,5.9c0.1,0,0.1,0.1,0.3,0.1l14.8,8.6C41.3,41.2,43.5,40.9,44.8,39.6L44.8,39.6z"/>
<path class="st0" d="M38.4,50c0-1.6-0.7-3.1-2.2-3.9l-14.8-8.6c-2.1-1.3-4.7-0.7-5.9,1.3c-1.3,2.1-0.7,4.8,1.3,5.9
	c0.1,0,0.1,0.1,0.3,0.1l8.5,4.9l-8.5,4.9c-2.1,1.2-3,3.7-1.8,5.9s3.7,3,5.9,1.8h0.3l14.8-8.6C37.7,53.1,38.4,51.6,38.4,50L38.4,50z"
	/>
<path class="st0" d="M46.1,63.5v17.2c-0.1,2.4-2,4.3-4.4,4.2c-2.3-0.1-4.2-1.9-4.2-4.2v-9.6L29.1,76c-2.1,1.3-4.7,0.7-5.9-1.3
	c-1.3-2.1-0.7-4.7,1.3-5.9c0.1,0,0.1-0.1,0.3-0.1l14.8-8.6c2.2-1.2,4.9-0.4,6.1,1.7c0,0,0,0,0,0C46,62.2,46.3,62.9,46.1,63.5
	L46.1,63.5z"/>
<path class="st0" d="M53.9,64v16.8c0.1,2.4,2,4.3,4.4,4.2c2.3-0.1,4.2-1.9,4.2-4.2v-9.6l8.3,4.7c2.1,1.3,4.7,0.7,5.9-1.3
	c1.3-2.1,0.7-4.7-1.3-5.9c-0.1,0-0.1-0.1-0.3-0.1l-14.8-8.6c-2.1-1.2-4.7-0.5-5.9,1.6C54,62.2,53.7,63.2,53.9,64L53.9,64z"/>
<path class="st0" d="M61.6,50c0-1.6,0.7-3.1,2.2-3.9l14.8-8.6c2.1-1.3,4.7-0.7,5.9,1.3c1.3,2.1,0.7,4.7-1.3,5.9
	c-0.1,0-0.1,0.1-0.3,0.1l-8.5,4.9l8.5,4.9c2.1,1.2,3,3.7,1.8,5.9c-1.2,2.1-3.7,3-5.9,1.8c-0.1,0-0.1-0.1-0.3-0.1l-14.8-8.6
	C62.2,53,61.4,51.6,61.6,50z"/>
<path class="st0" d="M53.9,36.1V19.3c0.1-2.4,2-4.3,4.4-4.2c2.3,0.1,4.2,1.9,4.2,4.2v9.6l8.3-4.7c2.1-1.3,4.7-0.7,5.9,1.3
	c1.3,2.1,0.7,4.7-1.3,5.9c-0.1,0-0.1,0.1-0.3,0.1l-14.8,8.6c-2.1,1.2-4.7,0.4-5.9-1.6C54,37.8,53.7,36.9,53.9,36.1L53.9,36.1z"/>
<path class="st0" d="M57.6,48.2l-5.8-5.9c-0.3-0.3-0.6-0.5-1-0.4h-1.5c-0.4,0-0.8,0.2-1,0.4l-5.9,5.9c-0.3,0.3-0.5,0.6-0.4,1v1.5
	c0,0.4,0.2,0.8,0.4,1l5.9,5.9c0.3,0.3,0.6,0.5,1,0.4h1.5c0.4,0,0.8-0.2,1-0.4l5.9-5.9c0.2-0.3,0.3-0.7,0.3-1v-1.5
	C58,48.9,57.9,48.5,57.6,48.2z M52.7,50.7l-1.8,1.8c-0.4,0.4-1.1,0.4-1.5,0l-1.8-1.8c-0.2-0.2-0.3-0.5-0.3-0.7
	c0-0.3,0.1-0.5,0.3-0.7l1.8-1.8c0.4-0.4,1.1-0.4,1.5,0l1.8,1.8c0.2,0.2,0.3,0.5,0.3,0.7C53,50.3,52.9,50.5,52.7,50.7L52.7,50.7z"/>
</svg>
