<svg width="16" height="16" viewBox="0 0 16 16" fill="none" xmlns="http://www.w3.org/2000/svg">
<path d="M46.7967 106.077H27.711C28.3648 109.688 30.9179 111.899 34.0002 111.899C35.9617 111.899 38.4214 111.65 40.2272 108.568L46.1429 109.813C43.9323 115.044 39.4488 117.566 33.9691 117.566C26.8703 117.566 21.1104 112.179 21.1104 104.302C21.1104 96.4249 26.9015 90.9763 34.0625 90.9763C40.7565 90.9763 46.5165 96.1447 46.7656 103.804V106.077H46.7967ZM27.8978 101.407H40.0093C39.1686 98.1996 36.7401 96.7674 34.0936 96.7674C31.5717 96.7985 28.7073 98.293 27.8978 101.407Z" fill="#3D4952"/>
<path d="M117.565 116.85H110.934V114.701C108.91 116.569 106.17 117.628 102.652 117.628C96.2692 117.628 90.3535 112.242 90.3535 104.364C90.3535 96.4873 96.2692 91.0386 102.652 91.0386C106.17 91.0386 108.941 92.0972 110.934 93.9653V82.134H117.565V116.85ZM110.934 104.333C110.934 99.6942 107.353 96.7986 103.804 96.7986C99.7874 96.7986 96.7673 99.7253 96.7673 104.333C96.7673 108.972 99.7874 111.806 103.804 111.806C107.384 111.806 110.934 108.941 110.934 104.333Z" fill="#3D4952"/>
<path d="M171.834 91.8169H162.68V97.3589H171.834C174.387 97.3589 176.1 98.4486 176.1 100.971V101.375H168.876C162.556 101.375 158.913 104.582 158.913 109.408C158.913 114.327 162.743 117.597 168.472 117.597C171.896 117.597 174.387 116.445 176.1 114.795V116.849H182.451V100.472C182.451 94.4945 178.248 91.9414 171.834 91.8169ZM176.1 106.699C176.1 109.906 173.048 112.335 169.53 112.335C166.977 112.335 165.265 111.121 165.265 109.284C165.265 107.571 166.666 106.419 168.783 106.419H176.131V106.699H176.1Z" fill="#3D4952"/>
<path d="M132.635 91.8169H123.481V97.3589H132.635C135.188 97.3589 136.9 98.4486 136.9 100.971V101.375H129.677C123.357 101.375 119.714 104.582 119.714 109.408C119.714 114.327 123.543 117.597 129.272 117.597C132.697 117.597 135.188 116.445 136.9 114.795V116.849H143.221V100.472C143.221 94.4945 139.018 91.9414 132.635 91.8169ZM136.9 106.699C136.9 109.906 133.849 112.335 130.331 112.335C127.778 112.335 126.065 111.121 126.065 109.284C126.065 107.571 127.466 106.419 129.584 106.419H136.931V106.699H136.9Z" fill="#3D4952"/>
<path d="M77.4952 91.8169H68.3416V97.3589H77.4952C80.0483 97.3589 81.7607 98.4486 81.7607 100.971V101.375H74.5374C68.217 101.375 64.5742 104.582 64.5742 109.408C64.5742 114.327 68.4038 117.597 74.1327 117.597C77.5575 117.597 80.0483 116.445 81.7607 114.795V116.849H88.1123V100.472C88.1123 94.4945 83.909 91.9414 77.4952 91.8169ZM81.7607 106.699C81.7607 109.906 78.7095 112.335 75.1912 112.335C72.6382 112.335 70.9258 111.121 70.9258 109.284C70.9258 107.571 72.3268 106.419 74.444 106.419H81.7919V106.699H81.7607Z" fill="#3D4952"/>
<path d="M64.7919 91.7858C60.7132 91.7858 57.8176 93.4048 55.7939 96.3315V91.7546H49.1621V116.818H55.7939V108.723C55.7939 101.749 58.596 97.3589 64.7296 97.3589H65.0409V91.7858C64.9475 91.7858 64.8853 91.7858 64.7919 91.7858Z" fill="#3D4952"/>
<path d="M19.8644 110.778C18.8681 111.152 17.8095 111.401 17 111.401C14.7894 111.401 13.3261 110.093 13.3261 107.073V97.1722H20.1135V91.7547H13.3261V85.6211H6.69434V97.2033V107.602C6.69434 114.483 10.6173 117.597 16.533 117.597C18.619 117.597 20.6428 117.161 23.1959 115.76C21.8571 114.39 20.5805 112.709 19.8644 110.778Z" fill="#3D4952"/>
<path d="M156.827 111.339C156.547 111.37 156.298 111.401 156.08 111.401C153.869 111.401 152.406 110.093 152.406 107.073V97.1722H159.38V91.7547H152.406V85.6211H145.774V97.2033V107.602C145.774 114.483 149.697 117.597 155.613 117.597C157.076 117.597 158.353 117.379 159.879 116.787C157.917 115.386 157.17 113.082 156.827 111.339Z" fill="#3D4952"/>
<path d="M193.504 113.02C193.504 115.386 191.698 117.223 189.145 117.223C186.623 117.223 184.786 115.417 184.786 113.02C184.786 110.747 186.592 108.786 189.145 108.786C191.698 108.786 193.504 110.778 193.504 113.02Z" fill="#F06F37"/>
</svg>
