<?xml version="1.0" encoding="utf-8"?>
<!-- Generator: Adobe Illustrator 23.0.4, SVG Export Plug-In . SVG Version: 6.00 Build 0)  -->
<svg version="1.1" id="image" xmlns="http://www.w3.org/2000/svg" xmlns:xlink="http://www.w3.org/1999/xlink" x="0px" y="0px"
	 viewBox="0 0 100 100" width="16" height="16" style="enable-background:new 0 0 100 100;" xml:space="preserve">
<title>Vertica</title>
<polygon points="33.9,42.3 23.1,42.3 23.1,42.3 23.1,42.3 17,53.1 11,42.3 8.1,42.3 17,58.2 24.6,44.9 33.9,44.9 "/>
<polygon points="33.9,51.3 33.9,48.7 23.2,48.7 23.2,57.5 33.9,57.5 33.9,55 25.7,55 25.7,51.3 "/>
<rect x="60.5" y="42.3" width="2.5" height="15.2"/>
<path d="M59.5,42.3H46.6l0,0c0.8,0.7,1.4,1.5,1.7,2.5h3.4v12.7h2.5V44.9h5.2L59.5,42.3L59.5,42.3z"/>
<path d="M46,57.5h2.5l-3.7-6.8c2.2-0.9,3.4-3.4,2.5-5.6c-0.7-1.7-2.3-2.8-4.1-2.8H35v15.2h2.5V51h5L46,57.5z M37.5,44.9h5.7
	c1,0,1.8,0.8,1.8,1.8c0,1-0.8,1.8-1.8,1.8h-5.7V44.9z"/>
<path d="M82.5,41.8L82.5,41.8L76,52.6l0,0l0,0c-1.5,2.4-4.7,3.2-7.1,1.7c-2.4-1.5-3.2-4.7-1.7-7.1c1.5-2.4,4.7-3.2,7.1-1.7
	c0.6,0.4,1.2,0.9,1.6,1.5l1.4-2.3c-1.5-1.6-3.5-2.4-5.6-2.4c-4.2,0-7.7,3.4-7.7,7.7c0,4.2,3.4,7.7,7.7,7.7c2.7,0,5.2-1.4,6.6-3.7
	l0,0l4.3-7.2L89,57.6h2.9L82.5,41.8z"/>
</svg>
