<svg version="1.1" id="image" xmlns="http://www.w3.org/2000/svg" x="0px" y="0px"
     viewBox="0 0 100 100" width="48" height="48" style="enable-background:new 0 0 100 100;" xml:space="preserve">
<path d="M75.3,40.5c-5.2,0-9.5,4.3-9.5,9.5s4.3,9.5,9.5,9.5s9.5-4.3,9.5-9.5S80.6,40.5,75.3,40.5z M75.3,53.1
	c-1.7,0-3.1-1.4-3.1-3.1s1.4-3.1,3.1-3.1s3.1,1.4,3.1,3.1S77.1,53.1,75.3,53.1z M38.7,39.7l6.6-6.6c2.9,1.5,6.3,1.5,9.2,0l6.9,6.9
	c0.9,1.2,2.7,1.2,3.8,0.2c1.2-0.9,1.2-2.7,0.2-3.8c-0.1-0.1-0.1-0.1-0.2-0.2l-6.9-6.9c0.7-1.5,1-3,1.2-4.7c0-5.2-4.3-9.5-9.5-9.5
	s-9.5,4.3-9.5,9.5c0,1.6,0.5,3.3,1.3,4.7l-6.6,6.6c-0.9,1-0.9,2.7,0,3.6C36,40.6,37.7,40.6,38.7,39.7L38.7,39.7z M50,21.4
	c1.7,0,3.1,1.4,3.1,3.1s-1.4,3.1-3.1,3.1s-3.1-1.4-3.1-3.1S48.3,21.4,50,21.4z M24.7,40.5c-5.2,0-9.5,4.3-9.5,9.5s4.3,9.5,9.5,9.5
	s9.5-4.3,9.5-9.5S29.9,40.5,24.7,40.5z M24.7,53.1c-1.7,0-3.1-1.4-3.1-3.1s1.4-3.1,3.1-3.1s3.1,1.4,3.1,3.1S26.4,53.1,24.7,53.1z
	 M61.4,60.3l-6.7,6.7c-1.4-0.8-3-1.3-4.7-1.3s-3.1,0.5-4.7,1.2l-6.9-6.9c-0.9-1.2-2.7-1.2-3.8-0.2c-1.2,0.9-1.2,2.7-0.2,3.8
	c0.1,0.1,0.1,0.1,0.2,0.2l6.9,6.9c-0.7,1.5-1,3-1.2,4.7c0,5.2,4.3,9.5,9.5,9.5s9.5-4.3,9.5-9.5c0-1.6-0.5-3.3-1.3-4.7L65,64
	c0.9-1,0.9-2.7,0-3.6c-0.8-0.9-2.3-1.2-3.4-0.2C61.6,60.1,61.5,60.1,61.4,60.3z M50,78.5c-1.7,0-3.1-1.4-3.1-3.1
	c0-1.7,1.4-3.1,3.1-3.1s3.1,1.4,3.1,3.1C53.1,77.1,51.7,78.5,50,78.5z"/>
</svg>
