<?xml version="1.0" encoding="utf-8"?>
<!-- Generator: Adobe Illustrator 23.0.4, SVG Export Plug-In . SVG Version: 6.00 Build 0)  -->
<svg version="1.1" id="image" xmlns="http://www.w3.org/2000/svg" x="0px" y="0px"
     viewBox="0 0 100 100" width="16" height="16" style="enable-background:new 0 0 100 100;" xml:space="preserve">
<title>Synchronize Node</title>
	<circle cx="50" cy="50" r="50" fill="grey"/>
<path d="M57.4,56.9L57.4,56.9c0.4-0.4,0.7-0.4,1.1-0.6c0.1,0,0.1-0.1,0.1-0.1l0.2-0.1l6.8-4.1l0,0c0.4-0.1,0.6-0.4,0.8-0.6v-0.1
	c0.1-0.1,0.4-0.2,0.4-0.4l0,0c2.6-2,4.2-5,4.2-8.3v-7.2c5.5-2,8.3-7.9,6.4-13.3c-1.9-5.4-7.9-8.3-13.3-6.3c-5.5,2-8.3,7.9-6.4,13.3
	c1.1,3,3.4,5.3,6.4,6.4v7.1c0,1.1-0.6,2.2-1.5,2.8L55,50l0,0c-0.6,0.4-1.1,0.6-1.6,1.1l0,0l-0.1,0.1c-1.2,0.8-2.3,1.8-3.2,2.9
	c-1.1-1.1-2-2.1-3.2-2.9L46.8,51c-0.1-0.1-0.1-0.1-0.2-0.1l0,0l-1.5-0.8H45l0,0l-6.9-4.2L38,45.8l-0.5-0.4c-1.1-0.7-1.5-1.8-1.5-2.9
	v-7.2c5.5-2,8.3-7.9,6.4-13.3s-7.9-8.3-13.3-6.3c-5.5,2-8.3,7.9-6.4,13.3c1.1,3,3.4,5.3,6.4,6.4v7.1c0,3.4,1.8,6.7,4.6,8.6l0,0l0,0
	l0.1,0.1l0.1,0.1l0.6,0.4l0.1,0.1l0,0l6.9,4.1h0.1l0,0l1.3,0.8c1.8,1.3,3.2,3,3.9,5v2.9c-5.5,2-8.3,7.9-6.4,13.3
	c2,5.5,7.9,8.3,13.3,6.4c5.5-2,8.3-7.8,6.4-13.2c-1.1-3-3.4-5.3-6.4-6.4v-2.9C54.3,59.8,55.6,58,57.4,56.9z M67.5,22.2
	c2,0,3.5,1.5,3.5,3.5s-1.5,3.5-3.5,3.5S64,27.7,64,25.7S65.5,22.2,67.5,22.2z M32.5,29.2c-2,0-3.5-1.5-3.5-3.5s1.5-3.5,3.5-3.5
	c2,0,3.5,1.5,3.5,3.5C36,27.5,34.5,29.2,32.5,29.2z M50,78.1c-2,0-3.5-1.5-3.5-3.5s1.5-3.5,3.5-3.5s3.5,1.5,3.5,3.5
	C53.5,76.5,52,78.1,50,78.1z"/>
</svg>
