<?xml version="1.0" encoding="utf-8"?>
<!-- Generator: Adobe Illustrator 23.0.4, SVG Export Plug-In . SVG Version: 6.00 Build 0)  -->
<svg version="1.1" id="image" xmlns="http://www.w3.org/2000/svg" x="0px" y="0px"
     viewBox="0 0 100 100" width="16" height="16" style="enable-background:new 0 0 100 100;" xml:space="preserve">
<title>Data Mapper Node</title>
	<circle cx="50" cy="50" r="50" fill="white"/>
<path d="M72.1,21.3c-2.6,0-4.7,2.1-4.7,4.7s2.1,4.7,4.7,4.7s4.7-2.1,4.7-4.7S74.7,21.3,72.1,21.3z M28,21.3c-2.6,0-4.7,2.1-4.7,4.7
	s2.1,4.7,4.7,4.7s4.7-2.1,4.7-4.7S30.6,21.3,28,21.3z M50,15c-0.1,0-0.2,0.1-0.4,0.1c-0.2,0.1-0.2,0.5-0.1,0.6l2.7,6.9h-16
	c-0.2,0-0.6,0.2-0.6,0.6v5.5c0,0.2,0.2,0.6,0.6,0.6h16l-2.7,6.9c-0.1,0.2,0,0.5,0.1,0.6c0.2,0.1,0.5,0.1,0.7,0l13.7-10.3
	c0.1-0.1,0.2-0.2,0.2-0.5c0-0.1-0.1-0.4-0.2-0.5L50.4,15.1C50.2,15.1,50.1,15,50,15z M72.1,69.6c-2.6,0-4.7,2.1-4.7,4.7
	s2.1,4.7,4.7,4.7s4.7-2.1,4.7-4.7C76.8,71.6,74.7,69.6,72.1,69.6z M27.9,69.6c-2.6,0-4.7,2.1-4.7,4.7s2.1,4.7,4.7,4.7
	s4.7-2.1,4.7-4.7S30.4,69.6,27.9,69.6z M50,63.1c-0.1,0-0.2,0.1-0.4,0.1c-0.2,0.1-0.2,0.5-0.1,0.6l2.7,6.9h-16
	c-0.2,0-0.6,0.2-0.6,0.6v5.5c0,0.2,0.2,0.6,0.6,0.6h16l-2.7,6.9c-0.1,0.2,0,0.5,0.1,0.6c0.2,0.1,0.5,0.1,0.7,0l13.6-10.2
	c0.1-0.1,0.2-0.2,0.2-0.5c0-0.2-0.1-0.4-0.2-0.5L50.4,63.4C50.2,63.2,50.1,63.1,50,63.1z M23.2,50.2c0-2.6,2.1-4.7,4.7-4.7
	s4.7,2.1,4.7,4.7c0,2.6-2.1,4.7-4.7,4.7S23.2,52.8,23.2,50.2z M35.6,47.4c0-0.2,0.2-0.6,0.6-0.6h16l-2.7-6.9c-0.1-0.2,0-0.5,0.2-0.6
	c0.1-0.1,0.2-0.1,0.4-0.1s0.2,0.1,0.4,0.1l13.6,10.5c0.1,0.1,0.2,0.2,0.2,0.5c0,0.1-0.1,0.4-0.2,0.5L50.4,61.3
	c-0.2,0.1-0.5,0.1-0.7,0c-0.2-0.1-0.2-0.5-0.2-0.6l2.7-6.9H36.2c-0.2,0-0.6-0.2-0.6-0.6C35.6,53.1,35.6,47.4,35.6,47.4z M67.4,50.1
	c0-2.6,2.1-4.7,4.7-4.7s4.7,2.1,4.7,4.7c0,2.6-2.1,4.7-4.7,4.7C69.6,54.9,67.4,52.7,67.4,50.1z"/>
</svg>
